<?xml version="1.0" encoding="UTF-8"?>
<!-- Created with Inkscape (http://www.inkscape.org/) -->
<svg width="131.64mm" height="131.64mm" version="1.1" viewBox="0 0 131.64 131.64" xmlns="http://www.w3.org/2000/svg" xmlns:cc="http://creativecommons.org/ns#" xmlns:dc="http://purl.org/dc/elements/1.1/" xmlns:rdf="http://www.w3.org/1999/02/22-rdf-syntax-ns#">
 <metadata>
  <rdf:RDF>
   <cc:Work rdf:about="">
    <dc:format>image/svg+xml</dc:format>
    <dc:type rdf:resource="http://purl.org/dc/dcmitype/StillImage"/>
    <dc:title/>
   </cc:Work>
  </rdf:RDF>
 </metadata>
 <g transform="translate(-3.3702 -69.199)">
  <circle cx="100.53" cy="128.4" r="13.898" fill="none" stroke-width="1.0583"/>
  <path transform="matrix(.26458 0 0 .26458 3.3702 69.199)" d="m245.75 0.5-11.975 19.57-7.2812 19.793-10.285 1.3535-12.154-17.232-16.631-15.805-5.8262 1.5605-6.5 22.002-1.9121 21.002-9.584 3.9707-16.201-13.5-20.154-10.961-5.2246 3.0156-0.58398 22.936 3.5898 20.779-8.2285 6.3164-19.145-8.8457-22.305-5.373-4.2656 4.2656 5.373 22.305 8.8457 19.145-6.3164 8.2285-20.779-3.5898-22.936 0.58398-3.0156 5.2246 10.961 20.154 13.5 16.201-3.9707 9.584-21.002 1.9121-22.002 6.5-1.5605 5.8262 15.805 16.631 17.232 12.154-1.3535 10.285-19.793 7.2812-19.57 11.975v6.0312l19.57 11.973 19.793 7.2812 1.3535 10.285-17.232 12.156-15.805 16.631 1.5605 5.8262 22.002 6.5 21.002 1.9102 3.9707 9.5859-13.5 16.201-10.961 20.154 3.0156 5.2227 22.936 0.58398 20.779-3.5898 6.3164 8.2305-8.8457 19.145-5.373 22.305 4.2656 4.2656 22.305-5.373 19.145-8.8457 8.2285 6.3145-3.5898 20.781 0.58398 22.936 5.2246 3.0156 20.154-10.963 16.201-13.498 9.584 3.9688 1.9121 21.002 6.5 22.004 5.8262 1.5606 16.631-15.805 12.154-17.232 10.285 1.3535 7.2812 19.791 11.975 19.572h6.0312l11.973-19.572 7.2812-19.791 10.285-1.3535 12.156 17.232 16.631 15.805 5.8262-1.5606 6.5-22.004 1.9102-21.002 9.5859-3.9688 16.201 13.498 20.154 10.963 5.2227-3.0156 0.58398-22.936-3.5898-20.781 8.2305-6.3145 19.145 8.8457 22.305 5.373 4.2656-4.2656-5.373-22.305-8.8457-19.145 6.3145-8.2305 20.781 3.5898 22.936-0.58398 3.0156-5.2227-10.963-20.154-13.498-16.201 3.9688-9.5859 21.002-1.9102 22.004-6.5 1.5606-5.8262-15.805-16.631-17.232-12.156 1.3535-10.285 19.791-7.2812 19.572-11.973v-6.0312l-19.572-11.975-19.791-7.2812-1.3535-10.285 17.232-12.154 15.805-16.631-1.5606-5.8262-22.004-6.5-21.002-1.9121-3.9688-9.584 13.498-16.201 10.963-20.154-3.0156-5.2246-22.936-0.58398-20.781 3.5898-6.3145-8.2285 8.8457-19.145 5.373-22.305-4.2656-4.2656-22.305 5.373-19.145 8.8457-8.2305-6.3164 3.5898-20.779-0.58398-22.936-5.2227-3.0156-20.154 10.961-16.201 13.5-9.5859-3.9707-1.9102-21.002-6.5-22.002-5.8262-1.5605-16.631 15.805-12.156 17.232-10.285-1.3535-7.2812-19.793-11.973-19.57h-6.0312zm25.492 69.844a180 180 0 0 1 155.95 155.94h-124.09a58.841 58.841 0 0 0-31.857-31.85v-124.09zm-44.953 0.054688v124.01a58.841 58.841 0 0 0-31.857 31.881h-124.06a180 180 0 0 1 155.91-155.89zm22.477 24.078a11.617 11.617 0 0 1 11.617 11.615 11.617 11.617 0 0 1-11.617 11.617 11.617 11.617 0 0 1-11.617-11.617 11.617 11.617 0 0 1 11.617-11.615zm0 47.477a11.617 11.617 0 0 1 11.617 11.617 11.617 11.617 0 0 1-11.617 11.617 11.617 11.617 0 0 1-11.617-11.617 11.617 11.617 0 0 1 11.617-11.617zm0 71.557a35.254 35.254 0 0 1 35.254 35.254 35.254 35.254 0 0 1-35.254 35.254 35.254 35.254 0 0 1-35.254-35.254 35.254 35.254 0 0 1 35.254-35.254zm-137.63 23.637a11.617 11.617 0 0 1 11.617 11.617 11.617 11.617 0 0 1-11.617 11.617 11.617 11.617 0 0 1-11.617-11.617 11.617 11.617 0 0 1 11.617-11.617zm47.479 0a11.617 11.617 0 0 1 11.615 11.617 11.617 11.617 0 0 1-11.615 11.617 11.617 11.617 0 0 1-11.617-11.617 11.617 11.617 0 0 1 11.617-11.617zm184.86 0a11.617 11.617 0 0 1 11.617 11.617 11.617 11.617 0 0 1-11.617 11.617 11.617 11.617 0 0 1-11.617-11.617 11.617 11.617 0 0 1 11.617-11.617zm47.479 0a11.617 11.617 0 0 1 11.615 11.617 11.617 11.617 0 0 1-11.615 11.617 11.617 11.617 0 0 1-11.617-11.617 11.617 11.617 0 0 1 11.617-11.617zm-320.54 34.094h124.01a58.841 58.841 0 0 0 31.881 31.85v124.09a180 180 0 0 1-155.89-155.94zm232.69 0h124.09a180 180 0 0 1-155.94 155.89v-124.01a58.841 58.841 0 0 0 31.85-31.881zm-54.326 57.086a11.617 11.617 0 0 1 11.617 11.615 11.617 11.617 0 0 1-11.617 11.617 11.617 11.617 0 0 1-11.617-11.617 11.617 11.617 0 0 1 11.617-11.615zm0 47.477a11.617 11.617 0 0 1 11.617 11.617 11.617 11.617 0 0 1-11.617 11.617 11.617 11.617 0 0 1-11.617-11.617 11.617 11.617 0 0 1 11.617-11.617z" fill="#4ecdc4" stroke="#000" stroke-width="4"/>
 </g>
</svg>
